<svg width="32" height="21" viewBox="0 0 32 17" fill="none" xmlns="http://www.w3.org/2000/svg">
<path d="M2.259 16.881L0.873 16.26L8.559 0.411L9.927 1.068L2.259 16.881ZM15.329 4.542H17.057L16.895 8.151L20.261 6.9L20.783 8.511L17.318 9.474L19.559 12.3L18.191 13.29L16.193 10.293L14.195 13.29L12.827 12.3L15.068 9.474L11.603 8.511L12.125 6.9L15.491 8.151L15.329 4.542ZM26.1219 4.542H27.8499L27.6879 8.151L31.0539 6.9L31.5759 8.511L28.1109 9.474L30.3519 12.3L28.9839 13.29L26.9859 10.293L24.9879 13.29L23.6199 12.3L25.8609 9.474L22.3959 8.511L22.9179 6.9L26.2839 8.151L26.1219 4.542Z" fill="#607B96"/>
</svg>
